<?xml version="1.0" encoding="utf-8"?>
<!-- Generator: Adobe Illustrator 22.0.1, SVG Export Plug-In . SVG Version: 6.00 Build 0)  -->
<svg version="1.1" id="Layer_1" xmlns="http://www.w3.org/2000/svg" xmlns:xlink="http://www.w3.org/1999/xlink" x="0px" y="0px"
	 viewBox="0 0 512 512" style="enable-background:new 0 0 512 512;" xml:space="preserve">
<style type="text/css">
	.st0{fill:#29EAF1;}
	.st1{fill:#0035F7;}
	.st2{fill:#FFD6AE;}
	.st3{fill:#936200;}
	.st4{fill:#FFFFFF;}
</style>
<g>
	<path class="st0" d="M246.1,385.2c0,65.9-53.4,119.3-119.3,119.3c-5,0-10-0.3-14.8-0.9C53.1,496.3,7.5,446.1,7.5,385.2
		c0-60.6,45.2-110.7,103.8-118.3c5.1-0.7,10.2-1,15.5-1c19.7,0,38.3,4.8,54.7,13.2c31.6-9.7,53.6-10.9,53.6-10.9s-1.1,20.2-9.7,49.8
		C238.4,337.2,246.1,360.3,246.1,385.2L246.1,385.2z"/>
	<path class="st1" d="M504.5,126.8c0,65.9-53.4,119.3-119.3,119.3c-5.8,0-11.5-0.4-17-1.2c-18.4-2.6-35.5-9.5-50.2-19.5
		c-29.6,8.6-49.8,9.7-49.8,9.7s1.2-22,10.9-53.6c-8.5-16.4-13.2-35-13.2-54.7c0-60.1,44.5-109.8,102.3-118.1
		c5.5-0.8,11.2-1.2,17-1.2C451.1,7.5,504.5,60.9,504.5,126.8L504.5,126.8z"/>
	<path class="st0" d="M385.2,189.6c-4.6-1.9-9-4-13-6.4c-58.3-33.7-50.5-108,0-118.9c4.1-0.9,8.4-1.3,13-1.3
		C450.9,63,462.8,157.8,385.2,189.6z"/>
	<g>
		<path class="st2" d="M128.4,445.4c-6.6,0-12.2-1-17.1-2.8c-32.2-11.7-29.2-56.6-29.2-56.6l46.3-22.3l19.6,9l26.7,12.2
			C174.7,384.8,178.6,445.4,128.4,445.4z"/>
		<path class="st3" d="M184.4,386.2c-22.1-1.4-35.9-16.8-36.3-17.3l0,0c-24.4,18.7-78.9,17.3-78.9,17.3
			c4.5-65.8,55.9-64.9,76.3-58.1C158.7,326.3,187.4,335.9,184.4,386.2z"/>
	</g>
</g>
<g>
	<path class="st4" d="M318.3,426.2c-5.4-0.2-10.9-0.4-16.3-0.6c-4.1-0.2-8.3-0.3-12.5-0.5c-4.1-0.1-7.6,3.1-7.7,7.2
		c-0.1,4.1,3.1,7.6,7.2,7.7c4.2,0.1,8.3,0.3,12.4,0.4c5.4,0.2,11,0.4,16.4,0.6c0.1,0,0.1,0,0.2,0c4,0,7.4-3.2,7.5-7.3
		C325.7,429.8,322.4,426.3,318.3,426.2z"/>
	<path class="st4" d="M450.4,291.4c-1.4-1.6-3.5-2.5-5.6-2.5c0,0,0,0,0,0c-2.1,0-4.2,0.9-5.6,2.5c-0.7,0.8-18.4,20.8-31,54.5
		c-1.4,3.9,0.5,8.2,4.4,9.6c0.9,0.3,1.7,0.5,2.6,0.5c3,0,5.9-1.9,7-4.9c4.7-12.7,10.2-23.3,15.2-31.4c-2,82.2-34.5,102.4-82.3,106.1
		c-4.1,0.3-7.2,3.9-6.9,8.1c0.3,3.9,3.6,6.9,7.5,6.9c0.2,0,0.4,0,0.6,0c21-1.6,51.3-6.7,71.5-32.1c15.4-19.4,23.5-48.4,24.6-88.3
		c4.8,8,10.1,18.3,14.6,30.6c1.4,3.9,5.7,5.9,9.6,4.5c3.9-1.4,5.9-5.7,4.5-9.6C468.7,312.1,451.1,292.2,450.4,291.4L450.4,291.4z"/>
	<path class="st4" d="M61.6,220.6c1.4,1.6,3.5,2.5,5.6,2.5h0c2.1,0,4.2-0.9,5.6-2.5c0.7-0.8,18.4-20.7,30.7-54.4
		c1.4-3.9-0.6-8.2-4.5-9.6c-3.9-1.4-8.2,0.6-9.6,4.5c-4.6,12.5-10,23-14.8,31c1.1-40.4,9.7-68.3,26.1-84.7
		C125,83.1,166.3,84.7,210,86.3c4.1,0.2,8.3,0.3,12.4,0.4c4.2,0.2,7.6-3.1,7.7-7.2c0.1-4.1-3.1-7.6-7.2-7.7
		c-4.1-0.1-8.3-0.3-12.4-0.4c-47.1-1.8-91.5-3.5-120.5,25.4c-19.2,19.2-29.3,50.4-30.5,95c-4.8-8.1-10.3-18.5-14.9-31
		c-1.4-3.9-5.8-5.9-9.6-4.4c-3.9,1.4-5.9,5.8-4.4,9.6C43.1,199.8,60.8,219.8,61.6,220.6z"/>
	<path class="st4" d="M242.5,268.7c0.1-2.1-0.7-4.2-2.2-5.7c-1.5-1.5-3.6-2.3-5.7-2.2c-0.9,0-21.9,1.3-52.5,10.4
		c-17.1-8.3-36.2-12.7-55.4-12.7c-26,0-51.1,7.8-72.4,22.7c-3.4,2.4-4.2,7-1.9,10.4c2.4,3.4,7,4.2,10.4,1.9
		c18.8-13.1,40.8-20,63.8-20c18.1,0,35.3,4.2,51.2,12.4c1.7,0.9,3.8,1.1,5.6,0.5c18.6-5.7,33.9-8.4,42.9-9.6
		c-1.1,8.4-3.5,22.3-8.4,39.2c-0.6,2.1-0.3,4.5,1,6.3c12.7,18.6,19.4,40.4,19.4,62.9c0,61.6-50.1,111.8-111.8,111.8
		S15,446.9,15,385.2c0-24.8,8-48.3,23-67.9c2.5-3.3,1.9-8-1.4-10.5c-3.3-2.5-8-1.9-10.5,1.4C9,330.4,0,357.1,0,385.2
		C0,455.1,56.9,512,126.8,512s126.8-56.9,126.8-126.8c0-24.4-6.9-48-20.1-68.4C241.3,288.6,242.5,269.5,242.5,268.7L242.5,268.7z"/>
	<path class="st4" d="M385.2,253.6c69.9,0,126.8-56.9,126.8-126.8S455.1,0,385.2,0c-32.4,0-63.2,12.2-86.8,34.4
		c-3,2.8-3.2,7.6-0.3,10.6c2.8,3,7.6,3.2,10.6,0.3c20.8-19.6,48-30.3,76.5-30.3C446.9,15,497,65.1,497,126.8
		c0,61.6-50.1,111.8-111.8,111.8c-22.6,0-44.4-6.7-62.9-19.4c-1.8-1.3-4.2-1.6-6.3-1c-17,4.9-30.8,7.3-39.3,8.4
		c1.2-9,3.9-24.2,9.6-42.9c0.6-1.9,0.4-3.9-0.5-5.6c-8.2-15.9-12.4-33.2-12.4-51.2c0-19.4,5-38.4,14.5-55.1c2-3.6,0.8-8.2-2.8-10.2
		c-3.6-2-8.2-0.8-10.2,2.8c-10.8,19-16.5,40.6-16.5,62.6c0,19.2,4.4,38.2,12.7,55.4c-9.1,30.5-10.3,51.6-10.4,52.5
		c-0.1,2.1,0.7,4.2,2.2,5.7c1.5,1.5,3.6,2.3,5.7,2.2c0.8,0,19.9-1.2,48.1-9C337.2,246.6,360.8,253.6,385.2,253.6L385.2,253.6z"/>
	<path d="M71.9,393.7c0.8,0,1.6,0,2.6,0c0.6,11,3.5,30.5,16.3,44.2c9.3,9.9,21.9,15,37.4,15c15.4,0,27.9-5,37.1-14.9
		c12.7-13.6,15.9-33,16.5-44.4c0.6,0.1,1.2,0.1,1.9,0.2c2,0.1,3.9-0.6,5.4-1.9c1.5-1.3,2.4-3.2,2.5-5.2c1-17.3-1.1-41-16.8-55.5
		c-9.5-8.7-20.8-11.2-28.9-10.6c-14.9-4.5-37.9-5.2-56.3,7.2c-16.9,11.3-26.4,30.8-28.3,58c-0.1,2,0.6,4,1.9,5.6
		c1.4,1.5,3.3,2.4,5.4,2.5C69,393.7,70.1,393.7,71.9,393.7L71.9,393.7z M154.4,427.7c-6.4,6.8-15,10.1-26.2,10.1
		c-11.3,0-20-3.3-26.4-10.2c-9.6-10.2-11.8-25.8-12.3-34.6c3.3-0.2,6.9-0.6,10.7-1c20-2.4,35.8-6.9,46.9-13.5
		c4.2,3.6,11,8.4,19.9,11.7C166.8,398.7,164.9,416.5,154.4,427.7L154.4,427.7z M98.2,340.2c8.5-5.7,18.4-7.6,27-7.6
		c7.2,0,13.5,1.3,17.7,2.7c1.1,0.4,2.3,0.5,3.4,0.3c4.5-0.6,12.1,0.7,18.5,6.6c7.8,7.2,11.9,19.3,12.2,35.4
		c-14.4-3.6-23.3-13.5-23.4-13.5c-2.6-3-7.1-3.4-10.2-1c-8.9,6.8-24.3,11.7-44.7,14.1c-8.3,1-15.9,1.4-21.3,1.5
		C80,360.6,87,347.7,98.2,340.2L98.2,340.2z"/>
	<path d="M432.6,147.5c3.9,1.4,8.2-0.7,9.6-4.6c7.8-22.1,5-45.6-7.2-62.9c-11.2-15.8-28.8-24.5-49.7-24.5c-30.6,0-54.2,19.1-60,48.8
		c-3.4,17.1-0.2,35.4,8.9,51.5c10.1,17.8,26.8,31.9,48.3,40.7c0.9,0.4,1.9,0.6,2.8,0.6s1.9-0.2,2.8-0.6c12.9-5.3,24-12.4,33.1-21.2
		c3-2.9,3.1-7.6,0.2-10.6c-2.9-3-7.6-3.1-10.6-0.2c-7,6.8-15.6,12.5-25.5,16.9c-17-7.5-30.1-18.9-38.1-33c-7.3-13-9.9-27.6-7.2-41.2
		c3.5-17.7,17.2-36.7,45.3-36.7c15.9,0,29.2,6.4,37.5,18.1c9.5,13.4,11.5,31.8,5.3,49.3C426.7,141.8,428.7,146.1,432.6,147.5
		L432.6,147.5z"/>
	<path d="M364.6,107.8c-4.2-0.1-7.6,3.1-7.7,7.3c0,0.4-0.2,8.8,3,19.3c1,3.2,4,5.3,7.2,5.3c0.7,0,1.5-0.1,2.2-0.3
		c4-1.2,6.2-5.4,5-9.4c-2.4-8-2.3-14.4-2.3-14.6C372,111.4,368.7,107.9,364.6,107.8z"/>
	<path d="M401.2,139.4c0.7,0.2,1.5,0.3,2.2,0.3c3.2,0,6.2-2.1,7.2-5.3c3.2-10.5,3-19,3-19.3c-0.1-4.1-3.4-7.3-7.5-7.3
		c-0.1,0-0.1,0-0.2,0c-4.1,0.1-7.4,3.5-7.3,7.7c0,0.1,0.1,6.5-2.3,14.6C395,134,397.3,138.2,401.2,139.4L401.2,139.4z"/>
</g>
</svg>
