<svg height="512" viewBox="0 0 512 512" width="512" xmlns="http://www.w3.org/2000/svg"><g id="filled_outline" data-name="filled outline"><path d="m200 192h-48v-24h40a8 8 0 0 1 8 8z" fill="#d8595a"/><path d="m312 192h48v-24h-40a8 8 0 0 0 -8 8z" fill="#d8595a"/><path d="m408 328v-136h-304v136l-16 56h52.145a48 48 0 0 0 41.675-24.185l14.149-24.761a14 14 0 0 1 12.156-7.054h95.75a14 14 0 0 1 12.156 7.054l14.149 24.76a48 48 0 0 0 41.675 24.186h52.145z" fill="#0292c9"/><path d="m216 240h-16v-16h-32v16h-16v32h16v16h32v-16h16z" fill="#026ca2"/><circle cx="288" cy="256" fill="#fbb540" r="16"/><circle cx="320" cy="224" fill="#2ad3b3" r="16"/><circle cx="320" cy="288" fill="#faa6b2" r="16"/><circle cx="352" cy="256" fill="#2cbff4" r="16"/><path d="m80 416 40-56a43.593 43.593 0 0 0 28.961-32.807l3.039-15.193 17.373-17.373a22.627 22.627 0 0 0 6.627-16 22.628 22.628 0 0 0 -22.627-22.627h-1.436a22.63 22.63 0 0 0 -14.135 4.958l-33.802 27.042v-64l24-32h40v-14a18 18 0 0 0 -18-18h-37.532a32 32 0 0 0 -26.04 13.4l-24.467 34.255a32 32 0 0 0 -5.961 18.6v85.745l-32 48z" fill="#fdc9a6"/><path d="m432 416-40-56a43.593 43.593 0 0 1 -28.961-32.807l-3.039-15.193-17.373-17.373a22.627 22.627 0 0 1 -6.627-16 22.628 22.628 0 0 1 22.627-22.627h1.436a22.63 22.63 0 0 1 14.135 4.958l33.802 27.042v-64l-24-32h-40v-14a18 18 0 0 1 18-18h37.532a32 32 0 0 1 26.04 13.4l24.467 34.255a32 32 0 0 1 5.961 18.6v85.745l32 48z" fill="#fdc9a6"/><path d="m240 304h-16a8 8 0 0 1 0-16h16a8 8 0 0 1 0 16z" fill="#026ca2"/><path d="m288 304h-16a8 8 0 0 1 0-16h16a8 8 0 0 1 0 16z" fill="#026ca2"/><path d="m280 192h-48l8-24h32z" fill="#026ca2"/><g fill="#fbb540"><path d="m63.994 152a8 8 0 0 1 -7.149-11.58 36.744 36.744 0 0 1 33.044-20.42h6.111a8 8 0 0 1 0 16h-6.111a20.833 20.833 0 0 0 -18.734 11.578 8 8 0 0 1 -7.161 4.422z"/><path d="m47.994 128a8 8 0 0 1 -7.149-11.58 36.744 36.744 0 0 1 33.044-20.42h6.111a8 8 0 0 1 0 16h-6.111a20.833 20.833 0 0 0 -18.734 11.578 8 8 0 0 1 -7.161 4.422z"/><path d="m448.006 152a8 8 0 0 1 -7.161-4.424 20.833 20.833 0 0 0 -18.734-11.576h-6.111a8 8 0 0 1 0-16h6.111a36.744 36.744 0 0 1 33.044 20.422 8 8 0 0 1 -7.149 11.578z"/><path d="m464.006 128a8 8 0 0 1 -7.161-4.424 20.833 20.833 0 0 0 -18.734-11.576h-6.111a8 8 0 0 1 0-16h6.111a36.744 36.744 0 0 1 33.044 20.422 8 8 0 0 1 -7.149 11.578z"/></g><circle cx="288" cy="256" r="16"/><circle cx="320" cy="224" r="16"/><path d="m240 288h-16a8 8 0 0 0 0 16h16a8 8 0 0 0 0-16z"/><path d="m288 288h-16a8 8 0 0 0 0 16h16a8 8 0 0 0 0-16z"/><path d="m56.845 140.422a8 8 0 1 0 14.31 7.156 20.833 20.833 0 0 1 18.734-11.578h6.111a8 8 0 0 0 0-16h-6.111a36.744 36.744 0 0 0 -33.044 20.422z"/><path d="m80 96h-6.111a36.744 36.744 0 0 0 -33.044 20.422 8 8 0 1 0 14.31 7.156 20.833 20.833 0 0 1 18.734-11.578h6.111a8 8 0 0 0 0-16z"/><path d="m416 120a8 8 0 0 0 0 16h6.111a20.833 20.833 0 0 1 18.734 11.578 8 8 0 1 0 14.31-7.156 36.744 36.744 0 0 0 -33.044-20.422z"/><path d="m438.111 112a20.833 20.833 0 0 1 18.734 11.578 8 8 0 1 0 14.31-7.156 36.744 36.744 0 0 0 -33.044-20.422h-6.111a8 8 0 0 0 0 16z"/><path d="m18.343 365.657 56 56a8 8 0 0 0 5.657 2.343q.328 0 .66-.027a8 8 0 0 0 5.85-3.323l20.464-28.65h33.171a56.125 56.125 0 0 0 48.622-28.216l14.147-24.76a6.016 6.016 0 0 1 5.211-3.024h95.75a6.014 6.014 0 0 1 5.21 3.023l14.148 24.761a56.125 56.125 0 0 0 48.622 28.216h33.171l20.464 28.65a8 8 0 0 0 5.85 3.323q.332.027.66.027a8 8 0 0 0 5.657-2.343l56-56a8 8 0 0 0 1-10.095l-30.657-45.984v-83.323a39.774 39.774 0 0 0 -7.451-23.25l-24.468-34.255a40.077 40.077 0 0 0 -32.549-16.75h-37.532a25.921 25.921 0 0 0 -18.735 8h-23.265a16.019 16.019 0 0 0 -16 16v8h-18.234l-6.176-18.53a8 8 0 0 0 -7.59-5.47h-32a8 8 0 0 0 -7.59 5.47l-6.176 18.53h-18.234v-8a16.019 16.019 0 0 0 -16-16h-23.265a25.921 25.921 0 0 0 -18.735-8h-37.532a40.077 40.077 0 0 0 -32.549 16.75l-24.468 34.255a39.774 39.774 0 0 0 -7.451 23.25v83.323l-30.656 45.984a8 8 0 0 0 .999 10.095zm353.512 10.343a40.085 40.085 0 0 1 -34.729-20.155l-14.149-24.761a22.052 22.052 0 0 0 -19.102-11.084h-95.75a22.054 22.054 0 0 0 -19.1 11.085l-14.148 24.761a40.086 40.086 0 0 1 -34.732 20.154h-21.745l6.665-9.332a51.715 51.715 0 0 0 31.738-37.906l2.563-12.818 15.661-15.66a30.9 30.9 0 0 0 3.573-4.284h21.4a8 8 0 0 0 8-8v-8h8a8 8 0 0 0 8-8v-32a8 8 0 0 0 -8-8h-8v-8a8 8 0 0 0 -8-8h-32a8 8 0 0 0 -8 8v8h-8a8 8 0 0 0 -8 8v9.063a30.7 30.7 0 0 0 -11.195 5.648l-20.805 16.644v-44.688l20-26.667h248l20 26.667v44.688l-20.8-16.644a30.722 30.722 0 0 0 -12.991-6.058 15.994 15.994 0 0 0 -30.209 7.347 16.255 16.255 0 0 0 .12 1.883 30.536 30.536 0 0 0 -7.814 16.461 16 16 0 1 0 5.333 21.99 30.938 30.938 0 0 0 3.331 3.95l15.661 15.66 2.563 12.817a51.715 51.715 0 0 0 31.738 37.907l6.668 9.332zm-171.855-128h8v16h-8a8 8 0 0 0 -8 8v8h-8.033c.02-.456.033-.913.033-1.373a30.676 30.676 0 0 0 -24-29.9v-.727h8a8 8 0 0 0 8-8v-8h16v8a8 8 0 0 0 8 8zm199.532-80a24.049 24.049 0 0 1 19.53 10.05l24.467 34.256a23.86 23.86 0 0 1 4.471 13.949v85.745a8 8 0 0 0 1.344 4.438l28.362 42.542-44.685 44.686-34.511-48.316a7.993 7.993 0 0 0 -3.981-2.939 35.669 35.669 0 0 1 -23.645-26.787l-3.039-15.193a8.008 8.008 0 0 0 -2.188-4.088l-17.373-17.372a14.628 14.628 0 0 1 10.343-24.971h1.435a14.679 14.679 0 0 1 9.139 3.206l33.799 27.041a8 8 0 0 0 13-6.247v-64a8 8 0 0 0 -1.6-4.8l-24-32a8 8 0 0 0 -6.4-3.2h-32v-6a10.011 10.011 0 0 1 10-10zm-79.532 8h16.084c-.05.661-.084 1.326-.084 2v6h-16zm-74.234 0h20.468l2.666 8h-25.8zm-53.766 0v8h-16v-6c0-.674-.034-1.339-.084-2zm-129.344 140.438a8 8 0 0 0 1.344-4.438v-85.745a23.865 23.865 0 0 1 4.471-13.95l24.467-34.255a24.049 24.049 0 0 1 19.53-10.05h37.532a10.011 10.011 0 0 1 10 10v6h-32a8 8 0 0 0 -6.4 3.2l-24 32a8 8 0 0 0 -1.6 4.8v64a8 8 0 0 0 13 6.247l33.8-27.041a14.679 14.679 0 0 1 9.138-3.206h1.435a14.628 14.628 0 0 1 10.343 24.971l-17.373 17.372a8.008 8.008 0 0 0 -2.188 4.088l-3.039 15.193a35.669 35.669 0 0 1 -23.645 26.787 7.993 7.993 0 0 0 -3.981 2.939l-34.511 48.316-44.685-44.686z"/></g></svg>