<svg id="Layer_1" data-name="Layer 1" xmlns="http://www.w3.org/2000/svg" viewBox="0 0 344.52 473"><defs><style>.cls-1{fill:#29eaf1;}.cls-2{fill:#0035f7;}</style></defs><title>favicom</title><path class="cls-1" d="M332.76,184.78q-2.2-41.15-23.87-65.38T252,95.16q-23.49,0-41.49,10.65t-23.15,29.76H88.88q16.91-55.84,58.77-86t99.9-30.11q180.71,0,180.71,196.87,0,41.87-11.76,75.66t-34.15,58a147.62,147.62,0,0,1-54.73,37.1Q295.31,400,253.43,400q-83.76,0-126.72-53.64t-43-161.6ZM182.17,245q.75,19.83,7,34.89a73.46,73.46,0,0,0,16.52,25,66,66,0,0,0,23.52,14.68,79.32,79.32,0,0,0,27.18,4.78q28.65,0,49.58-20.94T329.83,245Z" transform="translate(-83.74 -19.5)"/><rect class="cls-2" y="404.93" width="344.52" height="68.07"/></svg>