<svg id="Filled" height="512" viewBox="0 0 512 512" width="512" xmlns="http://www.w3.org/2000/svg"><path d="m280 200v-80a96 96 0 0 0 -96-96 96 96 0 0 0 -96 96v80a32 32 0 0 0 -32 32v48h256v-48a32 32 0 0 0 -32-32z" fill="#ad6643"/><path d="m472 360v64h-160l-32-64v128h-256l32-208h256l48 80z" fill="#e9eef2"/><path d="m160 240h48v40h-48z" fill="#f0c6a4"/><path d="m184 248a64 64 0 0 1 -64-64v-64h128v64a64 64 0 0 1 -64 64z" fill="#f7cca9"/><path d="m120 184a32 32 0 0 1 -32-32 32 32 0 0 1 32-32z" fill="#f0c6a4"/><path d="m248 120a32 32 0 0 1 32 32 32 32 0 0 1 -32 32z" fill="#f0c6a4"/><path d="m248 176-48 8-8-16h-16l-8 16-48-8v-56h128z" fill="#3397e8"/><path d="m120 120 96-48 32 48z" fill="#f7cca9"/><path d="m160 280h48l-24 48z" fill="#f0c6a4"/><path d="m456 394.742v-82.742h-32v82.742a48 48 0 1 0 32 0z" fill="#3397e8"/><path d="m432 344h48a0 0 0 0 1 0 0v48a0 0 0 0 1 0 0h-48a16 16 0 0 1 -16-16v-16a16 16 0 0 1 16-16z" fill="#f7cca9"/><circle cx="472" cy="264" fill="#2978b8" r="16"/><circle cx="408" cy="216" fill="#2978b8" r="16"/><g fill="#dadcde"><path d="m96 360v128h-16v-128a8 8 0 0 1 16 0z"/><path d="m176 328h16v160h-16z"/><path d="m160 280h-56l32 24v24l48 64v-64z"/><path d="m208 280h56l-32 24v24l-48 64v-64z"/><path d="m288 360v128h-16v-128a8 8 0 0 1 16 0z"/></g><path d="m472 288a24 24 0 1 0 -24-24 24.027 24.027 0 0 0 24 24zm0-32a8 8 0 1 1 -8 8 8.009 8.009 0 0 1 8-8z"/><path d="m408 240a24 24 0 1 0 -24-24 24.027 24.027 0 0 0 24 24zm0-32a8 8 0 1 1 -8 8 8.009 8.009 0 0 1 8-8z"/><circle cx="408" cy="280" r="8"/><circle cx="472" cy="200" r="8"/><path d="m479.138 400h.862a8 8 0 0 0 8-8v-48a8 8 0 0 0 -8-8h-16v-16h8a8 8 0 0 0 0-16h-64a8 8 0 0 0 0 16h8v22.131a24.076 24.076 0 0 0 -6.624 9.869h-44.847l-44.529-74.216v-45.784a40.071 40.071 0 0 0 -32-39.2v-72.8a104 104 0 0 0 -208 0v72.8a40.071 40.071 0 0 0 -32 39.2v47.386l-31.907 207.4a8 8 0 0 0 7.907 9.214h256a8 8 0 0 0 8-8v-94.111l16.845 33.689a8 8 0 0 0 7.155 4.422h72.581a56 56 0 1 0 94.557-32zm-7.138-16h-40a8.009 8.009 0 0 1 -8-8v-16a8.009 8.009 0 0 1 8-8h40zm-40-64h16v16h-16zm-128-88v40h-88v-23.528a72.142 72.142 0 0 0 39.635-57.212 39.827 39.827 0 0 0 16.365-7.282v16.022a8 8 0 0 0 8 8 24.028 24.028 0 0 1 24 24zm-163.2 65.6-12.8-9.6h27.056l20.944 41.889v38.111l-32-42.667v-21.333a8 8 0 0 0 -3.2-6.4zm-12.8-169.6h112v41.223l-35.487 5.915-5.358-10.716a8 8 0 0 0 -7.155-4.422h-16a8 8 0 0 0 -7.156 4.422l-5.358 10.716-35.486-5.915zm128 1.376a24 24 0 0 1 0 45.248zm-102.112-17.376 59.373-29.687 19.791 29.687zm-41.888 62.624a24 24 0 0 1 0-45.248zm54.684 17.268a8 8 0 0 0 8.471-4.314l5.789-11.578h6.111l5.789 11.578a8.007 8.007 0 0 0 8.47 4.314l38.649-6.442a55.981 55.981 0 0 1 -111.926 0zm17.316 64.108a71.947 71.947 0 0 0 16-1.814v23.925l-16 32-16-32v-23.925a71.947 71.947 0 0 0 16 1.814zm8 73.889 20.944-41.889h27.056l-12.8 9.6a8 8 0 0 0 -3.2 6.4v21.333l-32 42.667zm-8-297.889a88.1 88.1 0 0 1 88 88v.022a39.776 39.776 0 0 0 -19.55-7.768l-29.794-44.692a8 8 0 0 0 -10.234-2.717l-94.411 47.206a39.775 39.775 0 0 0 -22.011 7.971v-.022a88.1 88.1 0 0 1 88-88zm-96 176a8 8 0 0 0 8-8v-16.022a39.827 39.827 0 0 0 16.365 7.282 72.142 72.142 0 0 0 39.635 57.212v23.528h-88v-40a24.028 24.028 0 0 1 24-24zm-25.137 80h38.47l26.667 20v20a8 8 0 0 0 1.6 4.8l46.4 61.866v85.334h-80v-120a8 8 0 0 0 -16 0v120h-46.675zm254.081 128-29.789-59.578a8 8 0 0 0 -15.155 3.578v120h-80v-85.334l46.4-61.866a8 8 0 0 0 1.6-4.8v-20l26.667-20h40.8l45.669 76.116a8 8 0 0 0 6.864 3.884h48v8a23.868 23.868 0 0 0 5.174 14.858 56.375 56.375 0 0 0 -23.76 25.142zm123.056 64a40 40 0 1 1 40-40 40.045 40.045 0 0 1 -40 40z"/></svg>