<svg height="512" viewBox="0 0 52 60" width="512" xmlns="http://www.w3.org/2000/svg"><g id="Page-1" fill="none" fill-rule="evenodd"><g id="071---Scientific-Farming" transform="translate(-1)"><path id="Shape" d="m52 50.42c.0026578 2.2763712-.9004504 4.4602723-2.510089 6.069911-1.6096387 1.6096386-3.7935398 2.5127468-6.069911 2.510089h-32.487c-3.33246043.0551287-6.41686805-1.7548483-7.994-4.691-1.35721477-2.6553271-1.23562261-5.8254356.321-8.369l17.15-27.978c.3856395-.6289277.5898323-1.3522549.59-2.09v-10.042c-.0011398-.53078266-.2092118-1.04020049-.58-1.42l-2.21-2.2c-.203386-.20227537-.264624-.5072822-.1550765-.772387.1095474-.2651048.3682297-.43791319.6550765-.437613h16.58c.2868468-.00030019.5455291.1725082.6550765.437613.1095475.2651048.0483095.57011163-.1550765.772387l-2.21 2.2c-.3707882.37979951-.5788602.88921734-.58 1.42v10.042c.0001677.7377451.2043605 1.4610723.59 2.09l17.15 27.978c.8219883 1.3499212 1.2578103 2.8995104 1.26 4.48z" fill="#02a9f4" fill-rule="nonzero"/><path id="Shape" d="m50.74 45.94-17.15-27.978c-.3856395-.6289277-.5898323-1.3522549-.59-2.09v-10.042c.0011398-.53078266.2092118-1.04020049.58-1.42l2.21-2.2c.203386-.20227537.264624-.5072822.1550765-.772387-.1095474-.2651048-.3682297-.43791319-.6550765-.437613h-3c.2868468-.00030019.5455291.1725082.6550765.437613.1095475.2651048.0483095.57011163-.1550765.772387l-2.21 2.2c-.3707882.37979951-.5788602.88921734-.58 1.42v10.042c.0001677.7377451.2043605 1.4610723.59 2.09l17.15 27.978c1.6235086 2.6480787 1.6884465 5.9669866.1697657 8.6765456-1.5186808 2.7095589-4.3836277 4.3862955-7.4897657 4.3834544h3c3.1044768-.0010364 5.9664211-1.6784151 7.4842892-4.386524s1.4550449-6.0247906-.1642892-8.673476z" fill="#0377bc" fill-rule="nonzero"/><path id="Shape" d="m48 50.42c.0033082 1.4237299-.6542471 2.7683935-1.78 3.64-.8587674.6332327-1.903277.9638183-2.97.94h-32.32c-1.82537292.0500613-3.52930769-.9115272-4.43-2.5-.72404168-1.422831-.65585814-3.1198435.18-4.48l.63-1.02h39.39l.63 1.03c.4386376.7199953.6704513 1.5469129.67 2.39z" fill="#a0522d" fill-rule="nonzero"/><path id="Shape" d="m47.33 48.03-.63-1.03h-3l.63 1.03c1.2154148 2.0001507.7379845 4.5937586-1.11 6.03-.8587674.6332327-1.903277.9638183-2.97.94h3c1.066723.0238183 2.1112326-.3067673 2.97-.94 1.8479845-1.4362414 2.3254148-4.0298493 1.11-6.03z" fill="#783e22" fill-rule="nonzero"/><path id="Shape" d="m46.7 47h-39.39l13.8-22.52c.178697-.2988684.5017857-.4813185.85-.48h10.08c.3482143-.0013185.671303.1811316.85.48z" fill="#00bcd4" fill-rule="nonzero"/><path id="Shape" d="m32.89 24.48c-.178697-.2988684-.5017857-.4813185-.85-.48l-3-.0000071c.3482143-.0013114.671303.1811387.85.4800071l13.81 22.52h3z" fill="#00838f" fill-rule="nonzero"/><path id="Shape" d="m23.79 42.33c.6745795 1.1165947 1.0882072 2.3711514 1.21 3.67" stroke="#000" stroke-linecap="round" stroke-linejoin="round" stroke-width="2"/><path id="Shape" d="m23.754 37.729c.8788753.7303817 1.2689173 1.8951024 1.0071408 3.0074658-.2617764 1.1123634-1.1303116 1.9808986-2.242675 2.242675-1.1123634.2617765-2.2770841-.1282655-3.0074658-1.0071408-1.111-1.115-1.425-3.332-1.511-4.672-.0129183-.2899362.0966075-.571954.3018268-.7771732.2052192-.2052193.487237-.3147451.7771732-.3018268 1.343.079 3.56.393 4.675 1.508z" fill="#60a917" fill-rule="nonzero"/><path id="Shape" d="m29 46c-.4996493-2.7027968-.5570632-5.4687977-.17-8.19" stroke="#000" stroke-linecap="round" stroke-linejoin="round" stroke-width="2"/><g fill-rule="nonzero"><path id="Shape" d="m27.253 33.64c-.5190795 1.0195478-.4159376 2.245124.2662401 3.1635765.6821776.9184525 1.8256817 1.3713031 2.951724 1.168942s2.0403252-1.0250166 2.3600359-2.1235185c.581-1.465-.014-3.624-.47-4.888-.1034822-.2711248-.3160366-.4863503-.5858481-.5932101-.2698114-.1068598-.5720914-.0955363-.8331519.0312101-1.198.61-3.109 1.776-3.689 3.241z" fill="#60a917"/><path id="Shape" d="m19.558 17.439-17.153 27.981c-1.73996999 2.8385934-1.87562743 6.3785704-.358 9.342 1.7562841 3.2642166 5.18056443 5.2824883 8.887 5.238h32.486c2.5417505.0031898 4.9803148-1.0051043 6.7776052-2.8023948 1.7972905-1.7972904 2.8055846-4.2358547 2.8023948-6.7776052-.0027974-1.7639929-.4894572-3.4934165-1.407-5l-17.151-27.981c-.2891429-.4718919-.4421169-1.0145693-.442-1.568v-10.041c.0008458-.26486443.1032029-.51932554.286-.711l2.209-2.2c.4904686-.48782298.6382592-1.22331667.3742992-1.86273504-.2639599-.63941837-.8875401-1.05648049-1.5792992-1.05626496h-16.58c-.6917591-.00021553-1.3153393.41684659-1.5792992 1.05626496-.26396.63941837-.1161694 1.37491206.3742992 1.86273504l2.2 2.189c.1895667.19284098.2970855.45160271.3.722v10.041c-.0013871.5539104-.1561015 1.0966225-.447 1.568zm1.567-13.739-1.708-1.7h15.166l-1.719 1.712c-.5544847.56545915-.864751 1.32604247-.864 2.118v10.041c-.0000331.9223033.2550374 1.8266442.737 2.613l17.148 27.974c.7276305 1.1935734 1.1133353 2.5641227 1.115 3.962.0029251 2.0112363-.7947405 3.9409389-2.2169008 5.3630992s-3.3518629 2.2198259-5.3630992 2.2169008h-32.486c-2.9534287.0465437-5.68857156-1.5502405-7.1-4.145-1.20140988-2.3449487-1.09455134-5.1463856.282-7.393l17.147-27.978c.4819626-.7863558.7370331-1.6906967.737-2.613v-10.041c.0000015-.79748259-.314395-1.56281353-.875-2.13z" fill="#000"/><path id="Shape" d="m20.255 23.955-14.431 23.545c-1.01634364 1.6561681-1.09630333 3.7222355-.211 5.452 1.06925951 1.9260426 3.11867114 3.0999961 5.321 3.048h32.321c1.2860117.0200981 2.5425747-.3856303 3.574-1.154 2.2525671-1.7452564 2.8353711-4.9037612 1.354-7.338l-14.438-23.553c-.365604-.5910713-1.0100017-.9520096-1.705-.955h-10.08c-.6951494.0024162-1.3398067.3634999-1.705.955zm25.345 29.312c-.6800641.4950187-1.5040797.7525895-2.345.733h-32.321c-1.44925654.0513769-2.80853246-.7013404-3.534-1.957-.56815251-1.1122932-.51663229-2.4400754.136-3.505l.33-.538h38.273l.336.549c.9521797 1.5656482.5763577 3.5967227-.873 4.718zm-25.384-12c-.8322363-1.1812642-1.2538066-2.6030099-1.2-4.047 1.4386255-.0382666 2.8511129.3893028 4.027 1.219.4359757.4252524.6973919.9980144.733 1.606.0357103.5294391-.1555573 1.0490615-.526 1.429-.8983236.7695137-2.2477585.6764952-3.032-.209zm8.98-4.389c-.4905275-.2006284-.8723914-.6006763-1.05-1.1-.2094218-.5720158-.1969344-1.2017363.035-1.765.7527034-1.2352628 1.8908749-2.1886 3.239-2.713.6055836 1.3057164.7745917 2.7717389.482 4.181-.2173239.5693874-.6396227 1.0369835-1.184 1.311-.4710345.2425828-1.0230762.2731306-1.518.084zm15.717 9.122h-14.933c.0073645-.0664633.0073645-.1335367 0-.2-.403335-2.2497702-.506568-4.5430903-.307-6.82.06 0 .119.017.179.017.6055145-.0030967 1.2023356-.14435 1.745-.413.9920853-.4923981 1.7640285-1.3381825 2.164-2.371.673-1.7.122-3.982-.459-5.6-.2013197-.540769-.6226457-.9707156-1.1592268-1.1829455-.5365811-.2122298-1.1380155-.1868078-1.6547732.0699455-1.529.778-3.491 2.062-4.165 3.764-.415553 1.0267322-.4319618 2.1717819-.046 3.21.2798513.7580682.7887215 1.410233 1.456 1.866-.2839223 2.5521304-.1997289 5.1318138.25 7.66h-1.983c-.0927693-1.2268826-.4376216-2.42144-1.013-3.509.5571729-.7261282.8375861-1.6269247.791-2.541-.0578317-1.1062483-.5276577-2.1507816-1.317-2.928-1.294-1.293-3.6-1.693-5.317-1.8-.5778529-.0379719-1.1434094.1786786-1.548.593-.4112639.4059627-.6283311.9690265-.596 1.546.107 1.712.506 4.024 1.8 5.318.8255948.837447 1.9500518 1.3126254 3.126 1.321.4885336-.0001723.9728884-.0899931 1.429-.265.3393089.7139354.5572935 1.4794162.645 2.265h-14.913l12.873-21h10.08z" fill="#000"/><circle id="Oval" cx="13" cy="51" fill="#000" r="1"/><circle id="Oval" cx="22" cy="51" fill="#000" r="1"/><circle id="Oval" cx="31" cy="51" fill="#000" r="1"/><circle id="Oval" cx="40" cy="51" fill="#000" r="1"/><circle id="Oval" cx="25" cy="20" fill="#f5f5f5" r="1"/><circle id="Oval" cx="29" cy="17" fill="#f5f5f5" r="1"/><circle id="Oval" cx="26" cy="12" fill="#f5f5f5" r="1"/><circle id="Oval" cx="28" cy="8" fill="#f5f5f5" r="1"/><circle id="Oval" cx="25" cy="5" fill="#f5f5f5" r="1"/></g></g></g></svg>